# xmcd
#
# Track frame offsets:
#	150
#	9711
#	30816
#	50468
#	71605
#	84478
#	107165
#	120944
#	142220
#	150481
#	171978
#	194640
#	217574
#	314181
#
# Disc length: 4620 seconds
#
# Revision: 0
# Processed by: cddbd v1.5.2PL0 Copyright (c) Steve Scherf et al.
# Submitted via: audiograbber 1.83.01
#
DISCID=bd120a0e
DTITLE=Julian Cope - Jehovahkill (Deluxe Edition) [CD2)
DYEAR=2006
DGENRE=Rock
TTITLE0=Nothing
TTITLE1=I Have Always Been Here Before
TTITLE2=This Is My Kin
TTITLE3=Michael Rother
TTITLE4=Gogmagog
TTITLE5=Gone
TTITLE6=Vivien
TTITLE7=You Gotta Show
TTITLE8=Sqwubbsy The Olmec
TTITLE9=Sizewell B.
TTITLE10=Paleface
TTITLE11=Free
TTITLE12=Poet Is Priest... (Original 21.36 Mix)
TTITLE13=Starry Eyes
EXTD=
EXTT0=
EXTT1=
EXTT2=
EXTT3=
EXTT4=
EXTT5=
EXTT6=
EXTT7=
EXTT8=
EXTT9=
EXTT10=
EXTT11=
EXTT12=
EXTT13=
PLAYORDER=
